HIERARCHY
ROOT Hips
{
 OFFSET 0.000000 0.000000 0.000000
 CHANNELS 6 Xposition Yposition Zposition Yrotation Xrotation Zrotation
 JOINT Chest
 {
  OFFSET 0.000000 9.588913 -0.003946
  CHANNELS 3 Yrotation Xrotation Zrotation
  JOINT Chest2
  {
   OFFSET 0.000000 9.541882 0.008053
   CHANNELS 3 Yrotation Xrotation Zrotation
   JOINT Chest3
   {
    OFFSET 0.000000 9.501360 0.000000
    CHANNELS 3 Yrotation Xrotation Zrotation
    JOINT Chest4
    {
     OFFSET 0.000000 9.491660 0.000000
     CHANNELS 3 Yrotation Xrotation Zrotation
     JOINT Neck
     {
      OFFSET 0.000000 14.331917 0.000000
      CHANNELS 3 Yrotation Xrotation Zrotation
      JOINT Head
      {
       OFFSET 0.000000 8.884799 0.017034
       CHANNELS 3 Yrotation Xrotation Zrotation
       End Site
       {
        OFFSET 0.000000 16.896195 0.008993
       }
      }
     }
     JOINT RightCollar
     {
      OFFSET -2.923010 9.499495 0.000000
      CHANNELS 3 Yrotation Xrotation Zrotation
      JOINT RightShoulder
      {
       OFFSET -13.795216 0.000000 0.000000
       CHANNELS 3 Yrotation Xrotation Zrotation
       JOINT RightElbow
       {
        OFFSET -30.272209 0.000000 0.000000
        CHANNELS 3 Yrotation Xrotation Zrotation
        JOINT RightWrist
        {
         OFFSET -24.478199 0.000000 0.000000
         CHANNELS 3 Yrotation Xrotation Zrotation
         End Site
         {
          OFFSET -18.090752 0.000000 0.000000
         }
        }
       }
      }
     }
     JOINT LeftCollar
     {
      OFFSET 2.923010 9.499495 0.000000
      CHANNELS 3 Yrotation Xrotation Zrotation
      JOINT LeftShoulder
      {
       OFFSET 13.795216 0.000000 0.000000
       CHANNELS 3 Yrotation Xrotation Zrotation
       JOINT LeftElbow
       {
        OFFSET 30.272209 0.000000 0.000000
        CHANNELS 3 Yrotation Xrotation Zrotation
        JOINT LeftWrist
        {
         OFFSET 24.478199 0.000000 0.000000
         CHANNELS 3 Yrotation Xrotation Zrotation
         End Site
         {
          OFFSET 18.090752 0.000000 0.000000
         }
        }
       }
      }
     }
    }
   }
  }
 }
 JOINT RightHip
 {
  OFFSET -7.826875 0.019532 0.001973
  CHANNELS 3 Yrotation Xrotation Zrotation
  JOINT RightKnee
  {
   OFFSET 0.000000 -40.546152 -0.001885
   CHANNELS 3 Yrotation Xrotation Zrotation
   JOINT RightAnkle
   {
    OFFSET 0.000000 -39.417092 -0.003189
    CHANNELS 3 Yrotation Xrotation Zrotation
    JOINT RightToe
    {
     OFFSET 0.000000 -7.579396 17.243563
     CHANNELS 3 Yrotation Xrotation Zrotation
     End Site
     {
      OFFSET 0.000000 -1.500329 6.694466
     }
    }
   }
  }
 }
 JOINT LeftHip
 {
  OFFSET 7.826875 0.019532 0.001973
  CHANNELS 3 Yrotation Xrotation Zrotation
  JOINT LeftKnee
  {
   OFFSET 0.000000 -40.546152 -0.001885
   CHANNELS 3 Yrotation Xrotation Zrotation
   JOINT LeftAnkle
   {
    OFFSET 0.000000 -39.417092 -0.003189
    CHANNELS 3 Yrotation Xrotation Zrotation
    JOINT LeftToe
    {
     OFFSET 0.000000 -7.579396 17.243563
     CHANNELS 3 Yrotation Xrotation Zrotation
     End Site
     {
      OFFSET 0.000000 -1.500329 6.694466
     }
    }
   }
  }
 }
}
MOTION
Frames: 5
Frame Time: 0.008333
0.000000 87.345680 0.000000 0.000000 -5.767889 0.000000 0.000000 11.653876 0.000000 0.000000 -5.885988 0.000000 0.000000 -0.000000 0.000000 0.000000 -0.000000 0.000000 0.000000 12.528808 0.000000 0.000000 0.711711 0.000000 0.000000 -0.000000 0.000000 0.000000 -0.000000 0.000000 2.309063 -0.000000 0.000000 -2.309063 -0.000000 -0.000000 0.000000 -0.000000 0.000000 0.000000 0.000000 0.000000 -2.309063 0.000000 0.000000 2.309063 -0.000000 0.000000 0.000000 8.520374 0.000000 0.000000 1.905768 0.000000 -0.000000 -4.658254 0.000000 0.000000 -0.000000 0.000000 0.000000 8.520374 0.000000 0.000000 1.905768 0.000000 -0.000000 -4.658254 0.000000 0.000000 -0.000000 0.000000
38.116641 11.001769 -38.708112 114.515353 -60.889785 -133.997254 2.847230 10.722881 2.710536 1.575243 6.201314 1.497751 1.997462 7.744845 1.901774 1.575243 6.201314 1.497751 -6.985802 23.543183 1.164938 -7.941536 -0.035677 2.883955 -17.484772 2.089781 -21.996205 -8.477010 29.851850 94.470296 19.189004 -8.085537 27.308492 8.957750 2.811005 -27.606633 -5.649723 -14.576100 14.978970 -2.904715 13.809971 -85.979789 3.426940 -1.548610 -16.886302 3.895948 11.099826 3.375844 -7.783238 -17.461756 -14.868168 -58.070567 88.965084 -62.790471 13.258917 36.252346 15.221653 0.001169 -0.025139 0.014944 -5.579845 -36.462277 -8.763795 173.115104 67.429283 -173.349492 0.907252 29.264400 -1.354946 0.010934 -0.047138 -0.051836
38.115173 10.978862 -38.707949 114.557537 -60.872968 -134.040162 2.867443 10.742151 2.721311 1.579489 6.198192 1.497771 2.002762 7.740925 1.901855 1.579489 6.198192 1.497771 -7.002267 23.518388 1.154960 -7.957195 -0.064635 2.876849 -17.494701 2.086445 -21.989434 -8.491528 29.884408 94.449570 19.195771 -8.133209 27.313177 8.976814 2.808378 -27.623796 -5.625729 -14.582130 15.001109 -2.953270 13.780440 -85.999912 3.436300 -1.535102 -16.899005 3.989699 11.181136 3.359383 -7.783400 -17.462023 -14.867196 -58.957067 88.959283 -63.682635 13.256029 36.246827 15.216386 0.001537 -0.011746 0.007081 -5.584666 -36.451129 -8.785831 173.110264 67.424258 -173.343665 0.897525 29.244864 -1.370355 0.012602 -0.026598 -0.058053
38.113072 10.952527 -38.707427 114.571736 -60.852637 -134.057745 2.875359 10.758910 2.731573 1.580675 6.198351 1.500004 2.004284 7.741109 1.904671 1.580674 6.198351 1.500004 -7.011693 23.497092 1.139302 -7.963555 -0.090269 2.861816 -17.508966 2.075525 -22.004199 -8.513600 29.902023 94.442168 19.206044 -8.133549 27.321834 8.969902 2.822278 -27.636072 -5.610148 -14.592394 15.006765 -2.997183 13.741982 -86.004582 3.449477 -1.541288 -16.917725 4.081460 11.234590 3.337951 -7.788953 -17.464090 -14.872915 -59.497418 88.956662 -64.215543 13.248895 36.250387 15.205890 0.000680 -0.005077 -0.000013 -5.596197 -36.443711 -8.812371 173.088841 67.424016 -173.348658 0.886627 29.248392 -1.384568 0.013849 -0.023430 -0.063514
38.110725 10.926166 -38.707220 114.593897 -60.832238 -134.085486 2.880187 10.781491 2.745635 1.579182 6.200376 1.504172 2.002498 7.743627 1.909874 1.579182 6.200376 1.504172 -7.009820 23.475782 1.122164 -7.956740 -0.117036 2.842473 -17.527909 2.069706 -22.040244 -8.524967 29.896614 94.454782 19.216337 -8.108243 27.328491 8.945255 2.835762 -27.642514 -5.615645 -14.603410 14.988377 -3.005286 13.711199 -85.985156 3.458046 -1.541384 -16.930429 4.143896 11.238699 3.316221 -7.783071 -17.460467 -14.885034 -59.711001 88.959052 -64.409768 13.255528 36.258866 15.204960 -0.000805 -0.001622 -0.007513 -5.599711 -36.429338 -8.840548 173.044772 67.425364 -173.369237 0.876397 29.252873 -1.394433 0.014123 -0.018454 -0.068815
